<svg width="14" height="14" viewBox="0 0 14 14" fill="none" xmlns="http://www.w3.org/2000/svg">
<path d="M7 14C6.77531 14 6.58968 13.9267 6.44311 13.7801C6.29585 13.6329 6.22222 13.4469 6.22222 13.2222V7.77778H0.777778C0.553086 7.77778 0.367457 7.70415 0.220889 7.55689C0.0736294 7.41032 0 7.22469 0 7C0 6.77531 0.0736294 6.58933 0.220889 6.44207C0.367457 6.29551 0.553086 6.22222 0.777778 6.22222H6.22222V0.777778C6.22222 0.553086 6.29585 0.367457 6.44311 0.220889C6.58968 0.0736294 6.77531 0 7 0C7.22469 0 7.41067 0.0736294 7.55793 0.220889C7.70449 0.367457 7.77778 0.553086 7.77778 0.777778V6.22222H13.2222C13.4469 6.22222 13.6329 6.29551 13.7801 6.44207C13.9267 6.58933 14 6.77531 14 7C14 7.22469 13.9267 7.41032 13.7801 7.55689C13.6329 7.70415 13.4469 7.77778 13.2222 7.77778H7.77778V13.2222C7.77778 13.4469 7.70449 13.6329 7.55793 13.7801C7.41067 13.9267 7.22469 14 7 14Z" fill="#212121"/>
</svg>
