<svg width="19" height="31" viewBox="0 0 19 31" fill="none" xmlns="http://www.w3.org/2000/svg">
<path d="M1.24055 0.78327C0.807019 1.21693 0.563477 1.80502 0.563477 2.41821C0.563477 3.0314 0.807019 3.61949 1.24055 4.05314L12.6874 15.5L1.24055 26.9469C0.819305 27.383 0.586217 27.9672 0.591486 28.5735C0.596755 29.1798 0.839959 29.7598 1.26871 30.1886C1.69747 30.6174 2.27747 30.8606 2.8838 30.8658C3.49013 30.8711 4.07428 30.638 4.51042 30.2168L17.5922 17.135C18.0258 16.7013 18.2693 16.1132 18.2693 15.5C18.2693 14.8868 18.0258 14.2987 17.5922 13.8651L4.51042 0.78327C4.07676 0.349743 3.48867 0.106201 2.87548 0.106201C2.26229 0.106201 1.6742 0.349743 1.24055 0.78327Z" fill="#989898"/>
</svg>
