<svg width="22" height="20" viewBox="0 0 22 20" fill="none" xmlns="http://www.w3.org/2000/svg">
<path d="M4.25 0C3.25544 0 2.30161 0.395088 1.59835 1.09835C0.895088 1.80161 0.5 2.75544 0.5 3.75V11.25C0.5 11.7425 0.596997 12.2301 0.785452 12.6851C0.973907 13.14 1.25013 13.5534 1.59835 13.9017C2.30161 14.6049 3.25544 15 4.25 15H5V17.913C4.99995 18.1954 5.08123 18.4718 5.23412 18.7092C5.38701 18.9466 5.60504 19.1349 5.86214 19.2517C6.11925 19.3685 6.40454 19.4087 6.68391 19.3676C6.96328 19.3265 7.22491 19.2059 7.4375 19.02L12.032 15H17.75C18.2425 15 18.7301 14.903 19.1851 14.7145C19.64 14.5261 20.0534 14.2499 20.4016 13.9017C20.7499 13.5534 21.0261 13.14 21.2145 12.6851C21.403 12.2301 21.5 11.7425 21.5 11.25V3.75C21.5 2.75544 21.1049 1.80161 20.4016 1.09835C19.6984 0.395088 18.7446 0 17.75 0H4.25Z" fill="#989898"/>
</svg>
