<svg width="26" height="26" viewBox="0 0 26 26" fill="none" xmlns="http://www.w3.org/2000/svg">
<path d="M25.284 24.4689L18.2508 17.4357C19.9409 15.4066 20.7837 12.8041 20.6039 10.1695C20.4241 7.53491 19.2354 5.07107 17.2853 3.29053C15.3351 1.50999 12.7736 0.549841 10.1335 0.609828C7.49346 0.669815 4.97817 1.74532 3.11089 3.6126C1.24361 5.47988 0.168106 7.99517 0.108119 10.6352C0.0481325 13.2753 1.00828 15.8368 2.78882 17.787C4.56936 19.7371 7.03321 20.9258 9.66781 21.1056C12.3024 21.2855 14.9049 20.4426 16.9339 18.7525L23.9672 25.7857L25.284 24.4689ZM2.00138 10.8848C2.00138 9.22709 2.49297 7.60657 3.41397 6.2282C4.33496 4.84982 5.64402 3.77551 7.17558 3.14112C8.70715 2.50672 10.3924 2.34073 12.0183 2.66415C13.6442 2.98756 15.1377 3.78584 16.3099 4.95805C17.4821 6.13026 18.2804 7.62375 18.6038 9.24965C18.9273 10.8756 18.7613 12.5608 18.1269 14.0924C17.4925 15.624 16.4182 16.933 15.0398 17.854C13.6614 18.775 12.0409 19.2666 10.3831 19.2666C8.16092 19.2641 6.03042 18.3803 4.45907 16.8089C2.88772 15.2376 2.00385 13.1071 2.00138 10.8848Z" fill="#8D8D8D"/>
</svg>
