<svg width="18" height="18" viewBox="0 0 18 18" fill="none" xmlns="http://www.w3.org/2000/svg">
<path fill-rule="evenodd" clip-rule="evenodd" d="M11.8045 13.1329C10.6824 13.9344 9.30213 14.407 7.80971 14.407C4.04881 14.407 1 11.4058 1 7.70352C1 4.00127 4.04881 1 7.80971 1C11.5706 1 14.6194 4.00127 14.6194 7.70352C14.6194 9.30048 14.0521 10.767 13.1052 11.9185L16.7376 15.4942C17.0875 15.8387 17.0875 16.3972 16.7376 16.7417C16.3876 17.0861 15.8203 17.0861 15.4704 16.7417L11.8045 13.1329ZM12.8274 7.70352C12.8274 10.4315 10.5809 12.643 7.80971 12.643C5.03852 12.643 2.79203 10.4315 2.79203 7.70352C2.79203 4.97554 5.03852 2.76408 7.80971 2.76408C10.5809 2.76408 12.8274 4.97554 12.8274 7.70352Z" fill="#9E9E9E"/>
</svg>
