<svg width="48" height="48" viewBox="0 0 48 48" fill="none" xmlns="http://www.w3.org/2000/svg">
<path d="M47.893 45.3907L34.5299 32.0276C37.7411 28.1724 39.3424 23.2277 39.0007 18.2219C38.6591 13.2162 36.4007 8.53486 32.6953 5.15183C28.99 1.7688 24.1231 -0.0554721 19.107 0.0585031C14.0909 0.172478 9.31184 2.21593 5.76401 5.76376C2.21617 9.31159 0.172722 14.0906 0.0587472 19.1067C-0.055228 24.1228 1.76905 28.9898 5.15208 32.6951C8.5351 36.4004 13.2164 38.6588 18.2222 39.0005C23.2279 39.3422 28.1727 37.7409 32.0278 34.5296L45.3909 47.8927L47.893 45.3907ZM3.65595 19.581C3.65595 16.4313 4.58996 13.3523 6.33985 10.7334C8.08975 8.11449 10.5769 6.0733 13.4869 4.86795C16.3969 3.6626 19.5989 3.34723 22.6882 3.96171C25.7774 4.57619 28.615 6.09293 30.8422 8.32013C33.0694 10.5473 34.5861 13.3849 35.2006 16.4742C35.8151 19.5634 35.4997 22.7654 34.2944 25.6754C33.089 28.5854 31.0478 31.0726 28.4289 32.8225C25.81 34.5724 22.731 35.5064 19.5813 35.5064C15.3591 35.5017 11.3111 33.8223 8.32555 30.8368C5.33998 27.8512 3.66063 23.8033 3.65595 19.581Z" fill="#4361EE"/>
</svg>
